<?xml version="1.0" standalone="no"?>
<!DOCTYPE svg PUBLIC "-//W3C//DTD SVG 20010904//EN"
 "http://www.w3.org/TR/2001/REC-SVG-20010904/DTD/svg10.dtd">
<svg version="1.0" xmlns="http://www.w3.org/2000/svg"
 width="255.000000pt" height="198.000000pt" viewBox="0 0 255.000000 198.000000"
 preserveAspectRatio="xMidYMid meet">
<metadata>
Created by potrace 1.13, written by Peter Selinger 2001-2015
</metadata>
<g transform="translate(0.000000,198.000000) scale(0.100000,-0.100000)"
fill="#000000" stroke="none">
<path d="M0 1850 l0 -130 130 0 130 0 0 -125 0 -125 130 0 130 0 0 125 0 125
-130 0 -130 0 0 130 0 130 -130 0 -130 0 0 -130z"/>
<path d="M522 1853 l3 -128 128 -3 127 -3 0 131 0 130 -130 0 -131 0 3 -127z"/>
<path d="M1050 1850 l0 -130 -130 0 -130 0 0 -125 0 -125 130 0 130 0 0 125 0
125 130 0 130 0 0 -125 0 -125 120 0 120 0 0 -130 0 -130 -120 0 -120 0 0 125
0 125 -130 0 -130 0 0 -125 0 -125 120 0 120 0 0 -130 0 -130 -120 0 -119 0
-3 128 -3 127 -127 3 -128 3 0 -131 0 -130 120 0 120 0 0 -130 0 -130 -120 0
-120 0 0 -130 0 -131 128 3 127 3 3 128 3 127 119 0 120 0 0 -130 0 -130 -120
0 -120 0 0 -125 0 -125 130 0 130 0 0 125 0 125 120 0 120 0 0 -130 0 -130
-120 0 -120 0 0 -85 0 -85 130 0 130 0 0 90 0 90 120 0 120 0 0 125 0 125
-130 0 -130 0 0 130 0 130 130 0 129 0 3 -128 3 -127 128 -3 127 -3 0 131 0
130 -130 0 -130 0 0 130 0 130 130 0 130 0 0 130 0 131 -127 -3 -128 -3 -3
-127 -3 -128 -129 0 -130 0 0 130 0 130 130 0 130 0 0 125 0 125 -120 0 -120
0 0 130 0 130 123 0 122 0 -3 -125 -3 -125 130 0 131 0 0 125 0 125 -120 0
-120 0 0 130 0 130 -130 0 -130 0 0 -130 0 -130 -130 0 -130 0 0 130 0 130
-130 0 -130 0 0 -130z m500 -1030 l0 -130 -130 0 -130 0 0 130 0 130 130 0
130 0 0 -130z"/>
<path d="M2080 1850 l0 -131 128 3 127 3 3 128 3 127 -131 0 -130 0 0 -130z"/>
<path d="M2340 1595 l0 -125 105 0 105 0 0 125 0 125 -105 0 -105 0 0 -125z"/>
<path d="M0 1335 l0 -125 130 0 130 0 0 125 0 125 -130 0 -130 0 0 -125z"/>
<path d="M520 1335 l0 -124 -127 -3 -128 -3 -3 -127 -3 -128 -129 0 -130 0 0
-130 0 -130 130 0 129 0 3 -127 3 -128 128 -3 127 -3 0 -124 0 -125 130 0 130
0 0 125 0 125 -130 0 -130 0 0 130 0 130 -130 0 -130 0 0 130 0 130 130 0 130
0 0 130 0 130 130 0 130 0 0 125 0 125 -130 0 -130 0 0 -125z"/>
<path d="M2080 1335 l0 -125 130 0 130 0 0 -130 0 -130 -130 0 -130 0 0 -130
0 -130 130 0 130 0 0 -130 0 -130 -130 0 -130 0 0 -125 0 -125 130 0 130 0 0
125 0 125 105 0 105 0 0 130 0 130 -105 0 -105 0 0 130 0 130 105 0 105 0 0
130 0 130 -105 0 -105 0 0 125 0 125 -130 0 -130 0 0 -125z"/>
<path d="M524 937 c-2 -7 -3 -65 -2 -128 l3 -114 128 -3 127 -3 0 131 0 130
-125 0 c-94 0 -127 -3 -131 -13z"/>
<path d="M0 305 l0 -125 130 0 130 0 0 125 0 125 -130 0 -130 0 0 -125z"/>
<path d="M260 85 l0 -85 130 0 130 0 0 85 0 85 -130 0 -130 0 0 -85z"/>
<path d="M790 85 l0 -85 130 0 130 0 0 85 0 85 -130 0 -130 0 0 -85z"/>
<path d="M1810 85 l0 -85 130 0 130 0 0 85 0 85 -130 0 -130 0 0 -85z"/>
<path d="M2340 85 l0 -85 105 0 105 0 0 85 0 85 -105 0 -105 0 0 -85z"/>
</g>
</svg>
