<?xml version="1.0" standalone="no"?>
<!DOCTYPE svg PUBLIC "-//W3C//DTD SVG 20010904//EN"
 "http://www.w3.org/TR/2001/REC-SVG-20010904/DTD/svg10.dtd">
<svg version="1.0" xmlns="http://www.w3.org/2000/svg"
 width="183.000000pt" height="126.000000pt" viewBox="0 0 183.000000 126.000000"
 preserveAspectRatio="xMidYMid meet">
<metadata>
Created by potrace 1.13, written by Peter Selinger 2001-2015
</metadata>
<g transform="translate(0.000000,126.000000) scale(0.100000,-0.100000)"
fill="#000000" stroke="none">
<path d="M492 1235 c-110 -25 -205 -78 -291 -163 -122 -121 -176 -236 -187
-399 -10 -149 42 -317 130 -419 19 -23 33 -44 31 -48 -3 -3 -2 -4 1 -1 4 2 29
-16 56 -40 94 -85 254 -144 387 -145 130 0 270 46 371 121 25 19 54 39 65 45
11 6 57 34 103 63 45 28 82 48 82 44 0 -5 4 -3 8 3 4 6 134 87 290 179 155 92
281 172 280 177 -2 6 -127 81 -278 168 -151 87 -280 163 -287 169 -7 6 -15 11
-18 11 -4 0 -85 45 -181 101 -106 61 -201 108 -242 120 -88 26 -238 33 -320
14z"/>
</g>
</svg>
