<?xml version="1.0" standalone="no"?>
<!DOCTYPE svg PUBLIC "-//W3C//DTD SVG 20010904//EN"
 "http://www.w3.org/TR/2001/REC-SVG-20010904/DTD/svg10.dtd">
<svg version="1.0" xmlns="http://www.w3.org/2000/svg"
 width="195.000000pt" height="259.000000pt" viewBox="0 0 195.000000 259.000000"
 preserveAspectRatio="xMidYMid meet">
<metadata>
Created by potrace 1.13, written by Peter Selinger 2001-2015
</metadata>
<g transform="translate(0.000000,259.000000) scale(0.100000,-0.100000)"
fill="#000000" stroke="none">
<path d="M562 2520 c107 -138 208 -330 268 -509 22 -66 40 -125 40 -131 0 -6
-12 -22 -27 -36 -22 -20 -25 -27 -13 -31 8 -4 45 -35 82 -71 l68 -65 22 19
c12 10 36 35 52 54 17 19 41 45 52 57 21 21 21 23 5 37 -10 9 -20 13 -23 10
-4 -3 -20 2 -37 10 -16 9 -40 16 -53 17 -23 1 -23 1 2 9 23 7 22 8 -10 9 -19
1 -50 -3 -68 -8 -24 -7 -34 -7 -36 2 -57 226 -190 487 -322 632 l-36 40 34
-45z"/>
<path d="M438 2101 c-12 -15 -11 -15 6 -1 18 14 18 14 6 -7 -8 -12 -16 -20
-20 -18 -3 2 -5 -19 -5 -45 0 -26 4 -46 9 -43 4 3 5 -5 1 -17 -4 -12 -3 -20 2
-17 10 7 10 -79 -1 -90 -4 -4 -4 0 0 10 9 24 -21 22 -71 -4 -49 -26 -75 -49
-98 -88 l-18 -30 52 34 c70 48 91 45 46 -5 -51 -55 -88 -117 -103 -170 -10
-33 -10 -40 -1 -26 20 33 100 117 105 111 3 -3 -3 -13 -12 -24 -28 -31 -56
-118 -56 -174 l1 -52 12 35 c28 76 34 77 40 1 7 -88 21 -118 31 -70 5 21 10
28 13 19 3 -8 13 -31 22 -50 l16 -35 6 30 c3 17 1 36 -5 44 -9 12 -7 12 14 1
15 -8 20 -15 12 -18 -17 -5 -4 -22 18 -22 10 0 22 -5 26 -12 4 -7 3 -8 -4 -4
-7 4 -12 5 -12 2 0 -7 76 -46 87 -46 4 1 -8 9 -27 20 -46 25 -30 26 19 0 21
-10 41 -26 44 -34 6 -15 2 -121 -9 -213 l-5 -53 -56 -16 c-69 -20 -157 -14
-211 13 -38 20 -106 108 -96 124 3 5 16 9 30 9 13 0 24 5 24 11 0 5 4 8 9 5
13 -8 42 4 35 15 -3 5 -1 9 5 9 14 0 6 51 -10 61 -21 13 -25 11 -43 -17 -13
-18 -24 -24 -44 -22 -22 2 -27 9 -30 33 -4 45 11 58 71 64 13 2 7 28 -11 44
-10 10 -29 17 -41 17 -13 0 -19 4 -16 11 9 14 -24 49 -47 49 -11 0 -17 -4 -14
-9 3 -5 -1 -12 -10 -15 -10 -4 -13 -2 -8 7 4 6 -2 4 -14 -7 -12 -10 -19 -23
-15 -29 3 -5 2 -8 -3 -4 -5 3 -25 -8 -44 -25 l-35 -30 35 23 35 23 -22 -25
c-32 -35 -38 -74 -19 -107 l17 -27 -20 24 c-12 13 -21 19 -21 14 0 -5 14 -22
32 -39 17 -16 27 -22 23 -14 -5 8 3 3 18 -12 14 -16 32 -28 39 -28 9 0 9 3 -2
10 -8 5 -10 10 -4 10 5 0 19 -7 30 -16 10 -8 13 -12 5 -8 -9 4 -12 3 -8 -3 4
-6 2 -35 -4 -65 -9 -44 -8 -64 4 -104 l15 -49 1 40 c2 62 17 76 26 24 9 -52
40 -123 62 -141 14 -12 15 -11 5 9 -7 12 -12 37 -12 55 l0 33 16 -30 c20 -39
36 -56 73 -78 l30 -17 -25 45 c-14 25 -21 45 -15 45 6 0 11 -4 11 -9 0 -9 78
-51 95 -51 4 0 0 9 -10 20 -18 20 -17 20 21 20 29 0 35 3 24 10 -11 7 -7 10
20 12 24 1 16 3 -25 8 -58 6 -58 7 -15 9 25 1 71 8 103 16 43 10 57 10 54 2
-2 -7 -19 -15 -38 -18 -19 -4 -26 -7 -16 -8 12 -1 17 -10 18 -33 l2 -33 6 35
c6 31 8 26 14 -36 10 -87 2 -121 -26 -128 -12 -2 -1 -4 26 -3 78 3 53 -10 -34
-18 -139 -12 -252 -40 -344 -84 -33 -17 -61 -28 -63 -26 -9 9 101 62 173 82
44 13 63 21 43 18 -68 -10 -136 -35 -185 -68 -45 -30 -58 -52 -31 -52 6 0 13
-6 16 -14 3 -9 0 -11 -9 -6 -16 10 24 -47 46 -65 8 -7 15 -9 15 -5 0 5 9 0 20
-10 28 -25 25 -43 -2 -19 l-23 19 19 -22 c10 -12 23 -21 28 -20 12 2 107 -125
101 -135 -2 -4 8 -25 22 -45 14 -21 25 -40 25 -43 0 -3 -30 -4 -68 -2 -78 4
-145 -17 -232 -73 -64 -40 -63 -42 6 -15 65 24 185 38 287 34 48 -2 75 0 72 6
-4 6 -2 10 3 10 17 0 9 30 -10 36 -19 6 -54 62 -44 71 3 3 17 -2 31 -11 26
-17 26 -17 15 6 -6 13 -28 38 -48 55 -42 37 -26 44 26 13 48 -30 50 -25 7 20
-21 21 -43 36 -48 33 -6 -3 -7 -1 -3 5 4 7 -6 18 -25 27 -17 9 -29 18 -26 21
5 6 87 -23 104 -37 8 -8 13 -8 13 -1 0 18 -82 76 -134 94 l-51 17 40 1 c22 0
55 -4 73 -9 45 -13 31 6 -22 30 -22 10 -61 19 -86 19 -30 0 -40 3 -30 9 48 28
370 44 370 19 0 -51 124 -218 161 -218 6 0 1 9 -12 20 l-24 20 32 -17 c17 -10
30 -20 28 -23 -2 -3 15 -4 38 -3 38 2 39 1 12 -6 -29 -8 -29 -9 -4 -10 14 0
48 6 75 14 43 13 55 13 98 0 63 -19 92 -19 100 0 3 8 12 15 20 15 8 0 29 12
47 27 18 15 30 21 27 13 -2 -8 -24 -24 -48 -37 -24 -13 -36 -23 -28 -23 46 0
137 100 178 195 l19 45 95 0 c99 0 240 -16 266 -31 10 -6 0 -9 -30 -9 -39 0
-130 -31 -130 -44 0 -2 28 -2 63 0 42 3 54 1 37 -5 -52 -17 -106 -51 -140 -86
l-35 -37 38 22 c40 24 110 44 101 29 -3 -5 -11 -9 -17 -9 -17 0 -82 -55 -107
-90 l-21 -29 43 24 c64 37 71 30 20 -20 -25 -25 -42 -48 -38 -52 3 -4 12 -1
18 5 7 7 18 12 25 12 23 0 -18 -70 -45 -77 -15 -3 -20 -8 -12 -13 6 -4 11 -10
11 -14 -1 -3 -1 -10 -1 -16 0 -5 48 -9 118 -8 120 2 189 -9 272 -44 l45 -18
-25 20 c-14 11 -59 36 -100 57 -68 34 -82 38 -157 38 -57 0 -83 4 -83 12 0 6
5 15 11 18 6 4 8 13 5 21 -3 7 0 16 6 20 7 5 8 2 3 -7 -15 -25 1 -6 116 141
62 80 105 139 96 131 -9 -7 -17 -9 -17 -3 0 11 31 39 37 34 3 -2 8 0 11 4 4 4
2 4 -4 1 -7 -4 -14 -1 -17 6 -5 13 -78 52 -142 75 -48 18 -205 42 -272 42 -70
0 -88 19 -20 21 23 1 35 3 25 6 -23 6 -30 43 -22 130 5 58 4 77 -7 83 -26 17
-4 18 51 4 72 -19 181 -18 228 2 20 8 50 27 65 42 31 29 77 111 77 137 0 15
55 55 75 55 6 -1 -1 -7 -15 -15 -14 -8 -19 -14 -12 -15 17 0 80 68 93 99 6 16
6 34 0 54 -6 16 -8 33 -5 38 3 5 1 9 -3 9 -5 0 -28 18 -51 40 -22 22 -50 40
-61 40 -19 0 -51 -24 -51 -38 1 -16 27 -37 49 -40 14 -1 27 -4 29 -6 7 -8 -9
-46 -20 -46 -6 0 -8 3 -5 7 4 3 -7 16 -23 28 -16 12 -27 25 -23 28 13 14 -34
6 -55 -9 -24 -16 -30 -44 -9 -45 47 -3 67 -17 67 -51 0 -52 -42 -65 -78 -23
-19 22 -50 26 -53 6 -9 -47 -6 -62 12 -71 11 -6 24 -8 29 -5 6 3 10 1 10 -4 0
-6 11 -11 24 -11 38 0 39 -14 3 -66 -54 -79 -143 -109 -258 -85 -83 18 -82 17
-85 128 -2 54 -6 110 -9 125 -5 19 -1 29 12 37 10 6 14 11 8 11 -11 1 55 39
68 40 5 0 5 -5 1 -11 -11 -18 30 7 47 28 13 17 13 17 -6 3 -11 -8 -1 5 23 30
59 60 75 94 83 170 l6 65 1 -58 c2 -60 -13 -103 -50 -144 -19 -21 -32 -97 -15
-86 5 3 17 24 28 47 l18 41 7 -34 c10 -49 24 -18 31 70 6 76 11 75 40 -1 13
-34 13 -34 10 30 -2 44 -12 84 -29 123 l-27 57 24 -17 c13 -10 36 -37 51 -60
15 -24 28 -43 30 -43 6 0 -16 63 -35 103 -11 23 -41 66 -67 95 -25 28 -43 52
-39 52 21 0 82 -35 107 -62 26 -28 29 -29 18 -8 -38 74 -117 140 -167 140 -26
0 -27 -3 -13 -31 6 -10 8 -19 6 -19 -7 0 -36 56 -36 67 0 4 5 1 11 -7 8 -11 9
-6 5 23 -3 25 -1 35 6 31 6 -4 8 1 3 16 -4 12 -3 20 2 17 12 -8 8 102 -5 115
-13 13 -84 20 -77 8 3 -4 -3 -7 -13 -6 -9 0 -16 -4 -15 -10 1 -6 -5 -11 -13
-11 -8 0 -14 4 -14 9 0 4 -10 8 -23 8 -23 0 -57 -20 -89 -52 -10 -10 -24 -16
-30 -12 -7 4 -8 3 -4 -4 4 -7 2 -12 -3 -12 -6 0 -11 -9 -11 -19 0 -50 29 -68
52 -31 29 46 86 9 110 -71 10 -34 9 -42 -6 -58 -10 -11 -30 -21 -45 -23 -38
-4 -42 -44 -6 -58 36 -14 58 -13 49 2 -5 7 -2 9 8 5 20 -7 38 11 31 31 -4 9
-2 13 4 9 6 -4 14 0 17 9 4 10 2 13 -7 8 -6 -4 -3 2 8 13 19 19 21 19 32 3 23
-32 64 -171 70 -235 7 -72 -10 -109 -71 -163 -40 -34 -123 -69 -135 -56 -13
15 -96 278 -94 297 2 9 -3 17 -10 16 -21 -2 -63 -17 -49 -18 6 -1 12 -5 12
-10 0 -5 -13 -4 -30 2 -16 6 -30 17 -30 24 0 6 -4 15 -10 18 -5 3 -10 -3 -10
-13 0 -13 11 -24 31 -31 32 -11 31 -31 -2 -31 -11 0 -18 4 -14 9 12 20 -17 22
-73 5 -71 -22 -93 -22 -162 -1 -65 20 -181 37 -174 26 4 -7 -79 -266 -95 -296
-5 -9 -20 -6 -57 11 -96 45 -154 115 -154 188 0 46 35 177 62 233 21 42 23 44
40 28 10 -9 16 -23 13 -30 -3 -9 0 -11 7 -7 8 5 9 2 5 -9 -4 -10 -2 -16 5 -14
7 1 12 -5 13 -13 0 -9 11 -16 27 -18 67 -8 94 54 32 70 -49 13 -59 31 -45 81
23 77 80 112 109 67 22 -36 52 -20 52 29 0 14 -52 55 -72 56 -4 0 -13 7 -20
15 -11 12 -10 12 7 0 18 -14 19 -14 7 2 -8 10 -20 14 -29 11 -12 -5 -14 -3 -8
7 6 10 0 12 -29 7 -25 -4 -46 -1 -60 8 -28 18 -73 16 -88 -4z m765 -558 c-6
-36 -14 -41 -33 -18 -20 24 -27 18 -34 -27 l-7 -41 -34 33 c-37 36 -37 36 -53
-30 l-8 -35 -28 43 c-16 23 -31 42 -34 42 -7 0 -31 -33 -32 -44 0 -4 9 2 20
15 16 20 19 21 20 7 0 -10 4 -18 8 -18 4 0 16 -14 27 -32 l18 -32 10 25 c5 13
13 34 18 47 l9 23 26 -30 c31 -37 44 -39 44 -6 0 24 0 24 29 7 40 -22 70 -92
41 -92 -5 0 -10 3 -10 8 0 4 -31 8 -69 10 -56 3 -78 -1 -113 -19 -23 -12 -46
-27 -50 -33 -6 -8 -8 -8 -8 0 0 13 -127 57 -140 49 -5 -3 -11 -1 -14 3 -7 12
-59 2 -68 -12 -12 -19 -21 24 -10 48 6 13 24 33 40 45 l30 21 7 -30 c4 -17 11
-27 16 -24 6 3 6 10 1 17 -5 7 -13 29 -16 51 -7 37 -6 38 16 32 115 -34 243
-29 338 12 25 11 46 19 46 18 1 0 -1 -16 -3 -33z m-445 -379 c35 -13 72 -24
82 -24 11 0 20 -4 20 -9 0 -6 17 -8 38 -5 28 3 32 2 17 -5 -20 -9 -20 -10 1
-10 13 -1 24 -9 27 -22 7 -27 -24 -39 -121 -45 -52 -3 -72 -1 -67 7 5 7 -1 9
-16 7 -15 -2 -32 5 -46 19 -26 27 -48 96 -33 101 6 2 7 9 3 15 -4 7 0 8 13 2
10 -4 47 -18 82 -31z m532 27 c0 -5 3 -17 7 -27 3 -10 2 -15 -3 -12 -5 4 -10
-7 -11 -23 -2 -26 -33 -87 -33 -65 0 5 -7 3 -15 -4 -8 -7 -12 -17 -8 -24 4 -7
2 -7 -7 1 -8 8 -30 10 -63 6 -34 -4 -48 -3 -44 4 5 8 -6 9 -32 6 -23 -3 -41
-1 -45 6 -4 6 -1 11 8 11 9 0 15 5 13 12 -1 6 9 15 23 19 15 4 18 7 8 8 -9 1
-25 4 -35 7 -15 5 -15 4 -3 -5 17 -12 4 -13 -25 -1 -17 6 -14 9 19 15 26 5 46
4 59 -5 18 -10 19 -10 13 6 -4 10 -4 16 -1 12 8 -8 108 26 137 46 25 18 38 20
38 7z m-624 -163 c5 -7 2 -9 -7 -4 -8 4 -5 1 5 -8 10 -8 23 -13 27 -10 5 3 9
0 9 -5 0 -8 35 -10 105 -7 l105 5 18 -42 c22 -48 13 -89 -14 -66 -8 6 -18 9
-22 5 -4 -4 1 -12 11 -18 18 -9 18 -11 -2 -30 -14 -12 -29 -17 -44 -14 -12 3
-16 3 -8 -1 10 -4 0 -12 -30 -24 -54 -22 -100 -26 -54 -4 30 13 30 13 4 14
-14 1 -30 -4 -36 -10 -13 -13 -56 -2 -47 12 4 6 11 6 19 -1 9 -8 15 -8 20 0 3
5 1 10 -6 10 -7 0 -21 8 -31 17 -18 16 -18 16 -12 -3 12 -34 -14 -2 -31 39
-11 27 -12 37 -3 37 9 0 9 3 0 12 -18 18 -15 34 10 45 19 8 20 10 4 16 -10 4
-15 3 -11 -3 3 -6 1 -10 -5 -10 -7 0 -9 7 -6 16 3 9 6 22 6 30 0 17 16 19 26
2z m624 -30 c-11 -4 -20 -10 -20 -13 0 -4 5 -3 10 0 6 3 10 0 11 -7 0 -10 2
-10 6 0 6 16 23 6 23 -14 0 -9 -5 -12 -11 -8 -7 4 -10 -8 -9 -37 4 -60 2 -71
-10 -64 -5 3 -10 -1 -10 -10 0 -24 -62 -49 -104 -41 -20 4 -34 11 -31 17 4 5
-4 9 -17 9 -13 0 -32 7 -42 15 -11 8 -27 15 -37 15 -20 0 -49 32 -33 37 6 2 8
17 6 33 -3 24 -1 29 11 24 17 -6 32 12 17 21 -5 3 -10 11 -10 16 0 7 33 8 93
4 80 -6 97 -4 127 13 25 14 37 16 42 8 4 -6 -1 -14 -12 -18z m-340 -218 c8 -5
11 -10 5 -10 -6 0 -5 -4 1 -8 9 -5 8 -19 -3 -52 -11 -36 -22 -49 -46 -59 -18
-7 -40 -17 -50 -22 -10 -5 -23 -7 -29 -3 -6 4 -8 3 -5 -3 20 -32 -89 -55 -117
-24 -20 23 -38 111 -22 112 7 0 6 3 -1 6 -7 2 -13 11 -13 19 0 12 4 12 21 4
24 -13 89 -2 165 29 56 23 73 25 94 11z m118 -1 c18 -6 29 -16 25 -22 -4 -6
-1 -7 6 -3 7 5 25 3 40 -3 49 -21 95 -20 153 4 14 6 16 1 11 -37 -3 -24 -10
-47 -16 -53 -7 -7 -7 -5 -2 4 5 10 4 12 -4 7 -6 -4 -9 -11 -6 -16 9 -15 -7
-41 -22 -36 -8 3 -12 2 -9 -3 8 -13 -21 -34 -35 -25 -8 4 -9 3 -5 -4 5 -8 -1
-12 -16 -12 -42 0 -68 12 -68 31 0 10 -4 20 -9 23 -5 4 -7 -3 -4 -15 5 -19 4
-20 -15 -10 -12 6 -26 19 -31 29 -7 11 -11 12 -11 4 0 -10 -4 -10 -16 2 -8 9
-20 16 -25 16 -10 0 -12 34 -3 66 4 15 14 22 31 22 13 0 29 4 34 9 6 6 -2 8
-23 5 -18 -2 -39 -11 -45 -20 -14 -17 -16 -13 -7 12 3 9 16 16 28 17 19 1 19
2 -4 9 -22 7 -23 8 -4 9 12 1 35 -4 52 -10z m21 -216 c18 -14 52 -32 75 -39
36 -11 29 -20 -13 -15 -7 2 -10 -2 -6 -8 3 -6 1 -11 -6 -11 -7 0 -10 -3 -6 -6
11 -11 -19 -32 -56 -39 -29 -6 -38 -4 -43 9 -3 9 -11 13 -16 10 -7 -5 -9 4 -6
24 3 19 0 30 -6 29 -6 -1 -10 4 -8 11 1 6 3 27 5 46 2 31 4 33 27 24 14 -5 40
-21 59 -35z m-141 -12 c2 -24 0 -41 -5 -38 -4 3 -9 -6 -10 -20 -2 -35 -17 -47
-58 -47 -36 0 -90 38 -79 56 3 5 0 9 -7 7 -38 -5 -50 4 -15 12 21 5 51 18 67
30 16 11 29 17 29 13 0 -4 9 1 19 10 11 10 25 15 32 10 8 -5 10 -3 4 6 -5 8
-3 11 6 8 8 -3 15 -22 17 -47z"/>
<path d="M1794 1153 c-51 -159 -119 -211 -274 -215 -47 0 -70 -3 -51 -5 26 -3
31 -7 20 -14 -10 -6 -2 -9 25 -9 l39 0 -19 -21 c-19 -22 -19 -22 6 -14 40 12
80 35 80 45 0 6 5 10 11 10 6 0 -1 -20 -15 -45 l-25 -45 30 17 c37 22 53 39
73 78 l16 30 0 -27 c0 -15 -5 -39 -10 -54 -9 -23 -9 -25 4 -15 21 18 52 90 61
139 9 53 17 47 25 -16 l6 -47 13 45 c11 36 11 57 2 103 -7 31 -9 62 -6 67 3 6
4 10 0 10 -3 0 -8 -8 -11 -17z"/>
</g>
</svg>
