<?xml version="1.0" standalone="no"?>
<!DOCTYPE svg PUBLIC "-//W3C//DTD SVG 20010904//EN"
 "http://www.w3.org/TR/2001/REC-SVG-20010904/DTD/svg10.dtd">
<svg version="1.0" xmlns="http://www.w3.org/2000/svg"
 width="236.000000pt" height="255.000000pt" viewBox="0 0 236.000000 255.000000"
 preserveAspectRatio="xMidYMid meet">
<metadata>
Created by potrace 1.13, written by Peter Selinger 2001-2015
</metadata>
<g transform="translate(0.000000,255.000000) scale(0.100000,-0.100000)"
fill="#000000" stroke="none">
<path d="M1195 2514 c-115 -21 -326 -78 -430 -115 -83 -30 -96 -38 -165 -109
-42 -42 -141 -157 -220 -255 -202 -248 -188 -233 -200 -215 -5 8 -10 26 -11
40 -1 24 -1 23 -10 -5 -10 -33 -51 -246 -70 -364 -10 -67 -13 -73 -25 -56 -8
10 -15 39 -15 64 -2 60 -14 111 -22 91 -3 -8 -8 -145 -11 -303 -5 -274 -4
-295 19 -435 37 -216 76 -333 138 -408 16 -20 27 -52 35 -104 15 -100 36 -163
87 -257 31 -57 48 -79 65 -81 30 -5 24 10 -36 93 -52 73 -84 156 -84 216 l0
41 63 -54 c34 -30 85 -71 112 -90 59 -42 215 -122 215 -110 0 21 -63 64 -149
101 -57 24 -104 51 -118 68 -42 51 -150 278 -186 389 -66 204 -80 295 -81 519
l-1 200 34 80 c28 67 35 97 40 186 6 94 10 112 35 149 57 87 199 211 276 242
l34 14 -32 13 c-18 7 -32 16 -32 20 0 6 182 187 248 246 26 23 42 29 81 30 38
1 64 10 117 42 116 69 235 97 404 97 168 -1 294 -40 399 -124 37 -30 111 -125
111 -143 0 -12 -130 -8 -268 10 -82 10 -136 13 -141 7 -6 -5 -4 -22 4 -42 18
-40 62 -61 152 -69 l65 -6 -76 -40 c-98 -51 -195 -150 -225 -231 -50 -133 -12
-265 102 -357 83 -67 161 -91 312 -94 107 -3 111 -2 40 4 -44 5 -109 16 -145
26 -70 19 -160 60 -160 73 0 5 32 16 70 26 160 42 260 115 299 220 11 31 21
68 21 81 0 75 78 -37 132 -190 l29 -80 -6 57 c-12 125 -87 257 -224 393 -45
44 -81 82 -81 86 0 13 45 18 102 12 52 -5 58 -8 58 -29 0 -27 15 -38 54 -39
24 0 33 -8 56 -50 35 -62 45 -95 30 -95 -6 0 -20 19 -30 43 -20 44 -56 85 -66
75 -8 -8 41 -101 96 -183 68 -101 83 -135 125 -275 37 -127 79 -220 103 -228
18 -6 7 36 -35 127 -18 40 -32 75 -31 76 2 2 13 -1 26 -6 13 -5 31 -27 41 -51
21 -49 37 -208 21 -208 -5 0 -10 5 -10 10 0 6 -4 10 -8 10 -5 0 -3 -28 4 -62
9 -39 14 -136 14 -254 0 -160 3 -203 21 -274 12 -47 19 -97 16 -116 -3 -19
-31 -91 -62 -161 -188 -423 -188 -423 -161 -423 26 0 167 299 241 511 41 119
46 182 14 208 -21 17 -22 27 -29 352 -6 298 -9 340 -27 389 -23 62 -65 135
-128 224 -62 89 -81 132 -94 215 -14 86 -45 157 -108 243 -117 159 -259 290
-382 350 -58 29 -73 32 -175 35 -68 1 -142 -3 -191 -13z m425 -539 c44 -23 71
-68 77 -130 7 -65 -6 -71 -58 -28 -38 32 -68 95 -69 141 0 36 8 39 50 17z
m-79 -55 c29 -16 59 -84 59 -135 0 -36 -6 -51 -26 -71 -21 -22 -31 -25 -61
-19 -49 9 -68 23 -92 66 -33 58 -25 123 18 156 20 15 76 17 102 3z m-1440
-1096 c9 -43 36 -134 59 -202 23 -67 40 -128 38 -134 -6 -18 -54 50 -77 110
-19 48 -61 251 -61 295 0 10 5 17 13 15 6 -3 19 -40 28 -84z"/>
<path d="M518 2000 c-23 -6 -35 -24 -84 -134 -20 -44 -38 -66 -73 -90 -170
-115 -175 -204 -8 -131 l39 16 -9 -33 c-4 -18 -8 -89 -8 -158 1 -109 4 -132
25 -184 14 -33 31 -62 39 -64 15 -5 14 3 -13 73 -8 22 -15 57 -16 79 0 32 3
37 18 31 76 -31 109 -37 177 -33 140 9 238 101 261 247 l7 43 40 -5 c66 -9 70
-20 47 -112 -30 -119 -74 -198 -154 -277 -38 -38 -66 -72 -62 -75 4 -4 47 34
96 84 110 111 150 187 158 295 5 68 4 70 -29 104 -94 98 -309 142 -436 89 -50
-21 -51 -19 -11 23 71 74 98 121 98 171 l0 46 -39 0 c-22 0 -50 -2 -63 -5z
m102 -288 c54 -55 46 -175 -13 -195 -83 -27 -144 83 -106 192 10 28 15 31 51
31 30 0 46 -7 68 -28z"/>
<path d="M1691 1366 c-7 -8 -89 -53 -184 -100 -141 -70 -189 -100 -267 -166
-138 -117 -169 -130 -330 -139 -90 -6 -136 -13 -145 -22 -19 -20 -55 -163 -55
-220 0 -67 14 -96 74 -159 30 -30 72 -89 95 -130 23 -41 56 -88 73 -104 29
-26 34 -28 92 -22 78 8 148 -10 265 -68 129 -65 198 -86 284 -86 63 0 83 5
137 32 78 39 168 127 203 199 24 49 27 68 31 194 6 185 51 368 155 629 18 43
30 85 27 92 -8 20 -121 51 -227 63 -207 22 -215 22 -228 7z m217 -36 c63 -5
117 -11 120 -14 13 -14 -110 -116 -140 -116 -8 0 -38 20 -68 46 -38 33 -56 42
-64 34 -6 -6 -29 -48 -51 -93 -41 -82 -85 -127 -127 -127 -22 0 -114 83 -133
121 l-14 27 99 41 c55 22 121 54 147 71 38 24 55 29 82 24 19 -3 86 -9 149
-14z m179 -43 l31 -23 -34 -79 c-112 -257 -143 -382 -144 -572 0 -98 -4 -143
-16 -173 -9 -22 -20 -40 -24 -40 -12 0 -60 48 -60 60 0 6 10 8 25 4 37 -9 22
23 -19 40 l-31 13 43 40 c37 34 41 41 26 47 -20 8 -49 -16 -70 -56 -13 -25
-16 -26 -75 -21 -76 7 -89 -5 -89 -84 0 -58 -3 -60 -57 -38 -52 22 -63 14 -63
-45 0 -57 -10 -62 -75 -34 -33 14 -39 14 -61 -1 -14 -9 -24 -25 -24 -38 l1
-22 18 23 c24 27 31 27 84 1 48 -25 57 -35 57 -66 0 -28 -18 -29 -110 -7 -40
9 -113 41 -190 84 -129 71 -214 105 -232 94 -6 -4 2 -16 18 -30 26 -21 27 -23
9 -24 -24 0 -81 34 -107 63 -10 12 -39 57 -65 101 -25 43 -62 94 -81 113 l-35
35 6 105 c4 69 11 113 21 128 18 28 66 44 154 52 73 7 71 11 46 -113 -23 -111
-39 -118 -113 -49 -26 25 -53 45 -60 45 -21 0 -11 -22 27 -60 61 -61 159 -67
172 -10 5 22 12 25 55 28 87 4 90 7 120 77 16 36 29 65 31 65 2 0 18 -9 36
-20 43 -26 87 -25 128 3 40 26 78 98 82 153 l3 40 34 -23 c48 -33 78 -38 130
-24 75 20 141 98 141 166 0 37 32 32 80 -11 34 -31 44 -35 72 -29 52 11 96 43
124 91 14 24 27 44 28 44 1 0 16 -10 33 -23z m-667 -144 c-1 -44 -19 -113 -47
-175 l-26 -58 -49 0 c-46 0 -50 2 -59 30 -21 60 -64 31 -95 -65 -21 -65 -30
-75 -66 -75 -45 0 -78 39 -78 93 0 43 1 44 43 57 60 17 83 31 178 101 79 59
175 118 192 119 4 0 7 -12 7 -27z m351 -656 c46 -30 82 -101 75 -147 -5 -36
-58 -94 -78 -88 -22 8 -80 118 -85 162 -11 95 18 120 88 73z m-135 -128 c8 -7
37 -38 65 -70 l51 -59 -43 -20 c-27 -12 -66 -20 -101 -20 l-58 0 0 93 c0 52 3
96 6 99 7 8 62 -8 80 -23z"/>
</g>
</svg>
